 <svg  version="1.0" xmlns="http://www.w3.org/2000/svg"  width="200.000000pt" height="200.000000pt" viewBox="0 0 200.000000 200.000000"  preserveAspectRatio="xMidYMid meet">  <g transform="translate(0.000000,200.000000) scale(0.100000,-0.100000)" fill="#f20d0d" stroke="none"> <path d="M483 1264 c-67 -33 -115 -88 -111 -129 2 -24 13 -37 53 -62 28 -17 63 -42 79 -55 26 -22 28 -26 16 -49 -25 -47 -59 -51 -137 -15 l-51 24 -24 -25 -23 -25 25 -20 c21 -17 35 -20 95 -16 42 3 95 15 133 30 46 19 62 22 62 12 0 -7 9 -18 19 -23 14 -8 25 -6 44 9 25 20 25 20 30 0 7 -27 39 -25 65 3 27 28 28 41 4 28 -21 -11 -42 3 -42 29 -1 13 -3 12 -14 -2 -18 -24 -56 -24 -56 1 0 26 27 48 42 33 18 -18 38 -14 38 8 0 36 -54 26 -98 -18 -31 -32 -79 -62 -98 -62 -3 0 6 14 20 31 14 17 26 35 26 40 0 24 -25 52 -73 83 -75 49 -93 70 -79 100 12 26 92 69 119 64 9 -2 20 -14 23 -28 l6 -24 22 22 c58 58 -22 82 -115 36z"/> <path d="M1402 1198 c-18 -23 -32 -92 -32 -165 0 -59 -3 -73 -15 -73 -24 0 -29 29 -10 50 10 11 15 23 12 26 -6 6 -50 -36 -85 -80 -11 -14 -17 -15 -28 -5 -8 7 -13 18 -10 26 3 7 1 13 -5 13 -5 0 -12 -7 -15 -15 -8 -20 -43 -19 -51 1 -8 23 23 52 39 36 18 -18 38 -14 38 8 0 15 -7 20 -29 20 -32 0 -76 -36 -91 -75 -14 -36 -13 -43 9 -54 14 -8 25 -6 44 9 26 20 26 20 32 0 8 -26 37 -26 60 0 16 18 20 19 27 5 11 -19 47 -19 68 0 15 14 18 14 30 0 16 -19 49 -19 76 -1 18 13 22 13 37 -5 21 -23 24 -23 62 -1 29 18 30 18 45 -1 23 -28 51 -15 102 45 24 29 35 49 26 46 -9 -4 -19 -1 -22 7 -3 8 -14 18 -24 24 -16 9 -26 3 -58 -30 -22 -22 -47 -44 -56 -50 -26 -14 -58 6 -58 36 0 13 -4 26 -9 29 -11 7 -21 -17 -21 -50 0 -18 -5 -24 -23 -24 -13 0 -32 6 -42 14 -18 13 -18 16 -1 74 31 113 18 209 -22 160z m18 -114 c-16 -82 -34 -74 -27 11 5 74 15 96 29 70 7 -11 6 -39 -2 -81z m265 -104 c19 0 19 -16 0 -24 -14 -5 -45 17 -45 33 0 17 14 21 22 6 5 -8 16 -15 23 -15z"/> <path d="M1497 1114 c-13 -13 -7 -42 10 -48 21 -8 36 6 31 30 -3 19 -29 30 -41 18z"/> <path d="M1052 1036 c-9 -19 -8 -27 4 -36 18 -16 18 -30 -2 -30 -8 0 -20 14 -25 30 -6 17 -14 30 -18 30 -12 0 -33 -43 -24 -49 4 -3 13 -19 18 -36 16 -46 51 -46 70 -1 8 19 24 40 35 46 26 14 26 30 -1 30 -12 0 -23 8 -26 20 -7 27 -17 25 -31 -4z"/> <path d="M795 994 c-9 -10 -13 -23 -9 -33 3 -9 8 -24 11 -33 9 -29 31 -28 58 4 14 17 27 29 28 27 2 -2 11 -16 20 -31 19 -30 54 -37 75 -16 14 14 16 42 2 33 -11 -7 -60 38 -60 55 0 19 -28 10 -44 -15 -9 -14 -21 -25 -26 -25 -5 0 -12 11 -16 25 -7 29 -16 31 -39 9z"/> <path d="M502 798 c2 -15 10 -23 23 -23 30 0 27 39 -3 43 -20 3 -23 0 -20 -20z"/> <path d="M653 804 c-3 -8 -1 -20 5 -26 16 -16 42 -2 42 22 0 24 -38 28 -47 4z"/> <path d="M804 805 c-4 -9 -2 -21 4 -27 15 -15 44 -1 40 19 -4 23 -36 29 -44 8z"/> </g> </svg> 